<svg width="32" height="32" viewBox="0 0 32 32" fill="none" xmlns="http://www.w3.org/2000/svg">
<path d="M20 9H23" stroke="#313131"/>
<path d="M20 7.5L22.5981 6" stroke="#313131"/>
<path d="M20 10.5L22.5981 12" stroke="#313131"/>
<path d="M22.5 18.966C22.5 21.3108 21.2454 23.3656 19.3637 24.5H19.3633H19.3598H19.3563H19.3527H19.3491H19.3455H19.3418H19.3381H19.3344H19.3306H19.3267H19.3228H19.3189H19.315H19.311H19.307H19.3029H19.2988H19.2947H19.2905H19.2863H19.282H19.2777H19.2734H19.269H19.2646H19.2602H19.2557H19.2512H19.2467H19.2421H19.2375H19.2328H19.2281H19.2234H19.2186H19.2138H19.209H19.2041H19.1992H19.1943H19.1893H19.1843H19.1793H19.1742H19.1691H19.164H19.1588H19.1536H19.1483H19.1431H19.1378H19.1324H19.1271H19.1216H19.1162H19.1107H19.1052H19.0997H19.0941H19.0885H19.0829H19.0773H19.0716H19.0658H19.0601H19.0543H19.0485H19.0426H19.0368H19.0308H19.0249H19.0189H19.0129H19.0069H19.0009H18.9948H18.9887H18.9825H18.9763H18.9701H18.9639H18.9576H18.9514H18.945H18.9387H18.9323H18.9259H18.9195H18.913H18.9065H18.9H18.8935H18.8869H18.8803H18.8737H18.8671H18.8604H18.8537H18.847H18.8402H18.8334H18.8266H18.8198H18.813H18.8061H18.7992H18.7922H18.7853H18.7783H18.7713H18.7643H18.7572H18.7501H18.743H18.7359H18.7288H18.7216H18.7144H18.7072H18.6999H18.6927H18.6854H18.6781H18.6707H18.6634H18.656H18.6486H18.6412H18.6337H18.6262H18.6188H18.6112H18.6037H18.5962H18.5886H18.581H18.5734H18.5657H18.5581H18.5504H18.5427H18.535H18.5272H18.5195H18.5117H18.5039H18.4961H18.4882H18.4804H18.4725H18.4646H18.4567H18.4488H18.4408H18.4329H18.4249H18.4169H18.4088H18.4008H18.3927H18.3847H18.3766H18.3685H18.3603H18.3522H18.344H18.3359H18.3277H18.3195H18.3112H18.303H18.2947H18.2865H18.2782H18.2699H18.2616H18.2532H18.2449H18.2365H18.2281H18.2197H18.2113H18.2029H18.1945H18.186H18.1776H18.1691H18.1606H18.1521H18.1436H18.135H18.1265H18.1179H18.1094H18.1008H18.0922H18.0836H18.0749H18.0663H18.0577H18.049H18.0404H18.0317H18.023H18.0143H18.0056H17.9968H17.9881H17.9794H17.9706H17.9618H17.9531H17.9443H17.9355H17.9267H17.9179H17.909H17.9002H17.8914H17.8825H17.8737H17.8648H17.8559H17.847H17.8381H17.8292H17.8203H17.8114H17.8025H17.7935H17.7846H17.7756H17.7667H17.7577H17.7488H17.7398H17.7308H17.7218H17.7128H17.7038H17.6948H17.6858H17.6768H17.6677H17.6587H17.6497H17.6406H17.6316H17.6225H17.6135H17.6044H17.5953H17.5863H17.5772H17.5681H17.559H17.5499H17.5408H17.5317H17.5226H17.5135H17.5044H17.4953H17.4862H17.4771H17.468H17.4589H17.4498H17.4406H17.4315H17.4224H17.4133H17.4041H17.395H17.3859H17.3767H17.3676H17.3585H17.3493H17.3402H17.3311H17.3219H17.3128H17.3037H17.2945H17.2854H17.2763H17.2671H17.258H17.2489H17.2397H17.2306H17.2215H17.2123H17.2032H17.1941H17.185H17.1758H17.1667H17.1576H17.1485H17.1394H17.1303H17.1212H17.1121H17.103H17.0939H17.0848H17.0757H17.0666H17.0575H17.0484H17.0394H17.0303H17.0212H17.0122H17.0031H16.9941H16.985H16.976H16.9669H16.9579H16.9489H16.9399H16.9309H16.9218H16.9128H16.9038H16.8949H16.8859H16.8769H16.8679H16.859H16.85H16.8411H16.8321H16.8232H16.8143H16.8054H16.7965H16.7876H16.7787H16.7698H16.7609H16.752H16.7432H16.7343H16.7255H16.7167H16.7078H16.699H16.6902H16.6814H16.6727H16.6639H16.6551H16.6464H16.6376H16.6289H16.6202H16.6115H16.6028H16.5941H16.5854H16.5768H16.5681H16.5595H16.5508H16.5422H16.5336H16.525H16.5165H16.5079H16.4993H16.4908H16.4823H16.4738H16.4653H16.4568H16.4483H16.4398H16.4314H16.423H16.4145H16.4061H16.3978H16.3894H16.381H16.3727H16.3644H16.356H16.3477H16.3395H16.3312H16.3229H16.3147H16.3065H16.2983H16.2901H16.2819H16.2738H16.2656H16.2575H16.2494H16.2413H16.2333H16.2252H16.2172H16.2092H16.2012H16.1932H16.1852H16.1773H16.1694H16.1615H16.1536H16.1457H16.1379H16.13H16.1222H16.1144H16.1067H16.0989H16.0912H16.0835H16.0758H16.0681H16.0604H16.0528H16.0452H16.0376H16.0301H16.0225H16.015H16.0075H16H15.9925H15.985H15.9775H15.9699H15.9624H15.9548H15.9472H15.9396H15.9319H15.9242H15.9165H15.9088H15.9011H15.8933H15.8856H15.8778H15.87H15.8621H15.8543H15.8464H15.8385H15.8306H15.8227H15.8148H15.8068H15.7988H15.7908H15.7828H15.7748H15.7667H15.7587H15.7506H15.7425H15.7344H15.7262H15.7181H15.7099H15.7017H15.6935H15.6853H15.6771H15.6688H15.6605H15.6523H15.644H15.6356H15.6273H15.619H15.6106H15.6022H15.5939H15.5855H15.577H15.5686H15.5602H15.5517H15.5432H15.5347H15.5262H15.5177H15.5092H15.5007H15.4921H15.4835H15.475H15.4664H15.4578H15.4492H15.4405H15.4319H15.4232H15.4146H15.4059H15.3972H15.3885H15.3798H15.3711H15.3624H15.3536H15.3449H15.3361H15.3273H15.3186H15.3098H15.301H15.2922H15.2833H15.2745H15.2657H15.2568H15.248H15.2391H15.2302H15.2213H15.2124H15.2035H15.1946H15.1857H15.1768H15.1679H15.1589H15.15H15.141H15.1321H15.1231H15.1141H15.1051H15.0962H15.0872H15.0782H15.0691H15.0601H15.0511H15.0421H15.0331H15.024H15.015H15.0059H14.9969H14.9878H14.9788H14.9697H14.9606H14.9516H14.9425H14.9334H14.9243H14.9152H14.9061H14.897H14.8879H14.8788H14.8697H14.8606H14.8515H14.8424H14.8333H14.8242H14.815H14.8059H14.7968H14.7877H14.7785H14.7694H14.7603H14.7511H14.742H14.7329H14.7237H14.7146H14.7055H14.6963H14.6872H14.6781H14.6689H14.6598H14.6507H14.6415H14.6324H14.6233H14.6141H14.605H14.5959H14.5867H14.5776H14.5685H14.5594H14.5502H14.5411H14.532H14.5229H14.5138H14.5047H14.4956H14.4865H14.4774H14.4683H14.4592H14.4501H14.441H14.4319H14.4228H14.4137H14.4047H14.3956H14.3865H14.3775H14.3684H14.3594H14.3503H14.3413H14.3323H14.3232H14.3142H14.3052H14.2962H14.2872H14.2782H14.2692H14.2602H14.2512H14.2423H14.2333H14.2244H14.2154H14.2065H14.1975H14.1886H14.1797H14.1708H14.1619H14.153H14.1441H14.1352H14.1263H14.1175H14.1086H14.0998H14.091H14.0821H14.0733H14.0645H14.0557H14.0469H14.0382H14.0294H14.0206H14.0119H14.0032H13.9944H13.9857H13.977H13.9683H13.9596H13.951H13.9423H13.9337H13.9251H13.9164H13.9078H13.8992H13.8906H13.8821H13.8735H13.865H13.8564H13.8479H13.8394H13.8309H13.8224H13.814H13.8055H13.7971H13.7887H13.7803H13.7719H13.7635H13.7551H13.7468H13.7384H13.7301H13.7218H13.7135H13.7053H13.697H13.6888H13.6805H13.6723H13.6641H13.656H13.6478H13.6397H13.6315H13.6234H13.6153H13.6073H13.5992H13.5912H13.5831H13.5751H13.5671H13.5592H13.5512H13.5433H13.5354H13.5275H13.5196H13.5118H13.5039H13.4961H13.4883H13.4805H13.4728H13.465H13.4573H13.4496H13.4419H13.4343H13.4266H13.419H13.4114H13.4038H13.3963H13.3888H13.3812H13.3738H13.3663H13.3588H13.3514H13.344H13.3366H13.3293H13.3219H13.3146H13.3073H13.3001H13.2928H13.2856H13.2784H13.2712H13.2641H13.257H13.2499H13.2428H13.2357H13.2287H13.2217H13.2147H13.2078H13.2008H13.1939H13.187H13.1802H13.1734H13.1666H13.1598H13.153H13.1463H13.1396H13.1329H13.1263H13.1197H13.1131H13.1065H13.1H13.0935H13.087H13.0805H13.0741H13.0677H13.0613H13.055H13.0486H13.0424H13.0361H13.0299H13.0237H13.0175H13.0113H13.0052H12.9991H12.9931H12.9871H12.9811H12.9751H12.9692H12.9632H12.9574H12.9515H12.9457H12.9399H12.9342H12.9284H12.9228H12.9171H12.9115H12.9059H12.9003H12.8948H12.8893H12.8838H12.8784H12.873H12.8676H12.8622H12.8569H12.8517H12.8464H12.8412H12.836H12.8309H12.8258H12.8207H12.8157H12.8107H12.8057H12.8008H12.7959H12.791H12.7862H12.7814H12.7766H12.7719H12.7672H12.7625H12.7579H12.7533H12.7488H12.7443H12.7398H12.7354H12.731H12.7266H12.7223H12.718H12.7137H12.7095H12.7053H12.7012H12.6971H12.693H12.689H12.685H12.6811H12.6772H12.6733H12.6694H12.6656H12.6619H12.6582H12.6545H12.6509H12.6473H12.6437H12.6402H12.6367H12.6363C10.7546 23.3656 9.5 21.3108 9.5 18.966C9.5 15.3972 12.4078 12.5 16 12.5C19.5922 12.5 22.5 15.3972 22.5 18.966Z" stroke="#313131"/>
<rect x="13.5" y="7.5" width="5" height="3" rx="0.5" stroke="#313131"/>
<path d="M9.5 18.5C9.5 18.5 11.5 16 16 18.1111C20.5 20.2222 22.5 18.5 22.5 18.5" stroke="#313131" stroke-linecap="round" stroke-linejoin="round"/>
</svg>
