<svg width="32" height="32" viewBox="0 0 32 32" fill="none" xmlns="http://www.w3.org/2000/svg">
<path d="M10.5 26C10.5 22.6667 12 16 19.5 11" stroke="#313131"/>
<path d="M12.5 19C13 20 14.8 21.6 18 20C17.3333 18.6667 15.3 16.6 12.5 19Z" stroke="#313131"/>
<path d="M16.4346 14.0661C16.6587 15.1614 17.9833 17.1728 21.4883 16.4555C21.1895 14.9951 19.7603 12.4726 16.4346 14.0661Z" stroke="#313131"/>
<path d="M19.5519 10.7058C20.4849 11.3219 22.8437 11.8075 24.815 8.82186C23.571 8.00049 20.7767 7.22737 19.5519 10.7058Z" stroke="#313131"/>
<path d="M16.2038 13.315C15.0878 13.382 12.8022 12.6231 12.5878 9.05185C14.0758 8.96253 16.8823 9.69012 16.2038 13.315Z" stroke="#313131"/>
<path d="M12.2038 18.315C11.0878 18.382 8.80217 17.6231 8.58781 14.0518C10.0758 13.9625 12.8823 14.6901 12.2038 18.315Z" stroke="#313131"/>
</svg>
